<?xml version="1.0" encoding="UTF-8"?>
<svg width="70px" height="70px" viewBox="0 0 70 70" version="1.1" xmlns="http://www.w3.org/2000/svg" xmlns:xlink="http://www.w3.org/1999/xlink">
    <title>scroll_right@1x</title>
    <g id="scroll_right" stroke="none" stroke-width="1" fill="none" fill-rule="evenodd">
        <g id="noun-left-arrow-rectangale-6784613" transform="translate(35.0005, 35.2634) scale(-1, 1) translate(-35.0005, -35.2634)translate(-0.3, 0.0039)" fill="#000000" fill-rule="nonzero" stroke="#FFFFFF" stroke-width="4">
            <g id="Group">
                <path d="M68.601,37.167 L47.792,37.167 C46.6904,37.167 45.792,36.26856 45.792,35.167 C45.792,34.0654 46.69044,33.167 47.792,33.167 L68.601,33.167 C69.7026,33.167 70.601,34.06544 70.601,35.167 C70.601,36.2686 69.70256,37.167 68.601,37.167 Z" id="Path"></path>
                <path d="M58.152,47.527 C57.64028,47.527 57.1325,47.32778 56.7418,46.93716 L46.3898,36.58516 C45.60855,35.80391 45.60855,34.53436 46.3898,33.75706 L56.7418,23.40506 C57.52305,22.62381 58.7926,22.62381 59.5699,23.40506 C60.35115,24.18631 60.35115,25.45586 59.5699,26.23316 L50.6285,35.17456 L59.5699,44.11596 C60.35115,44.89721 60.35115,46.16676 59.5699,46.94406 C59.17928,47.33468 58.67146,47.5339 58.1597,47.5339 L58.152,47.527 Z" id="Path"></path>
                <path d="M58.48,70.519 L12.039,70.519 C5.3984,70.519 1.77635684e-15,65.1206 1.77635684e-15,58.48 L1.77635684e-15,12.039 C1.77635684e-15,5.3984 5.3984,1.77635684e-15 12.039,1.77635684e-15 L58.48,1.77635684e-15 C65.1206,1.77635684e-15 70.519,5.3984 70.519,12.039 L70.519,22.711 C70.519,23.8126 69.62056,24.711 68.519,24.711 C67.41744,24.711 66.519,23.81256 66.519,22.711 L66.519,12.039 C66.519,7.6093 62.9096,3.9999 58.4799,3.9999 L12.0389,3.995993 C7.6092,3.995993 3.9998,7.605393 3.9998,12.035093 L3.9998,58.476093 C3.9998,62.905793 7.6092,66.515193 12.0389,66.515193 L58.4799,66.515193 C62.9096,66.515193 66.519,62.905793 66.519,58.476093 L66.519,47.804093 C66.519,46.702493 67.41744,45.804093 68.519,45.804093 C69.62056,45.804093 70.519,46.702533 70.519,47.804093 L70.519,58.476093 C70.519,65.116693 65.1206,70.515093 58.48,70.515093 L58.48,70.519 Z" id="Path"></path>
            </g>
        </g>
    </g>
</svg>